<mxfile host="Electron" agent="Mozilla/5.0 (Windows NT 10.0; Win64; x64) AppleWebKit/537.36 (KHTML, like Gecko) draw.io/28.1.2 Chrome/138.0.7204.243 Electron/37.4.0 Safari/537.36" version="28.1.2">
  <diagram name="Page-1" id="mtDkjtM5bem-R05YWpZf">
    <mxGraphModel dx="692" dy="595" grid="1" gridSize="10" guides="1" tooltips="1" connect="1" arrows="1" fold="1" page="1" pageScale="1" pageWidth="850" pageHeight="1100" math="0" shadow="0">
      <root>
        <mxCell id="0" />
        <mxCell id="1" parent="0" />
        <mxCell id="dM5VIWMZbMEH0EdZ9pPq-1" value="" style="rounded=0;whiteSpace=wrap;html=1;" vertex="1" parent="1">
          <mxGeometry x="40" y="20" width="690" height="100" as="geometry" />
        </mxCell>
        <mxCell id="dM5VIWMZbMEH0EdZ9pPq-7" value="Entity" style="whiteSpace=wrap;html=1;align=center;" vertex="1" parent="1">
          <mxGeometry x="310" y="45" width="100" height="40" as="geometry" />
        </mxCell>
        <mxCell id="dM5VIWMZbMEH0EdZ9pPq-8" value="Entity" style="whiteSpace=wrap;html=1;align=center;" vertex="1" parent="1">
          <mxGeometry x="450" y="45" width="100" height="40" as="geometry" />
        </mxCell>
        <mxCell id="dM5VIWMZbMEH0EdZ9pPq-9" value="Entity" style="whiteSpace=wrap;html=1;align=center;" vertex="1" parent="1">
          <mxGeometry x="590" y="45" width="100" height="40" as="geometry" />
        </mxCell>
        <mxCell id="dM5VIWMZbMEH0EdZ9pPq-11" value="Photo" style="html=1;whiteSpace=wrap;strokeColor=none;fillColor=#0079D6;labelPosition=center;verticalLabelPosition=middle;verticalAlign=top;align=center;fontSize=12;outlineConnect=0;spacingTop=-6;fontColor=#FFFFFF;sketch=0;shape=mxgraph.sitemap.photo;" vertex="1" parent="1">
          <mxGeometry x="60" y="30" width="80" height="80" as="geometry" />
        </mxCell>
        <mxCell id="dM5VIWMZbMEH0EdZ9pPq-12" value="Photo" style="html=1;whiteSpace=wrap;strokeColor=none;fillColor=#0079D6;labelPosition=center;verticalLabelPosition=middle;verticalAlign=top;align=center;fontSize=12;outlineConnect=0;spacingTop=-6;fontColor=#FFFFFF;sketch=0;shape=mxgraph.sitemap.photo;" vertex="1" parent="1">
          <mxGeometry x="45" y="150" width="690" height="390" as="geometry" />
        </mxCell>
        <mxCell id="dM5VIWMZbMEH0EdZ9pPq-14" value="Photo" style="html=1;whiteSpace=wrap;strokeColor=none;fillColor=#0079D6;labelPosition=center;verticalLabelPosition=middle;verticalAlign=top;align=center;fontSize=12;outlineConnect=0;spacingTop=-6;fontColor=#FFFFFF;sketch=0;shape=mxgraph.sitemap.photo;" vertex="1" parent="1">
          <mxGeometry x="510" y="630" width="120" height="70" as="geometry" />
        </mxCell>
        <mxCell id="dM5VIWMZbMEH0EdZ9pPq-15" value="Photo" style="html=1;whiteSpace=wrap;strokeColor=none;fillColor=#0079D6;labelPosition=center;verticalLabelPosition=middle;verticalAlign=top;align=center;fontSize=12;outlineConnect=0;spacingTop=-6;fontColor=#FFFFFF;sketch=0;shape=mxgraph.sitemap.photo;" vertex="1" parent="1">
          <mxGeometry x="300" y="630" width="120" height="70" as="geometry" />
        </mxCell>
        <mxCell id="dM5VIWMZbMEH0EdZ9pPq-16" value="Photo" style="html=1;whiteSpace=wrap;strokeColor=none;fillColor=#0079D6;labelPosition=center;verticalLabelPosition=middle;verticalAlign=top;align=center;fontSize=12;outlineConnect=0;spacingTop=-6;fontColor=#FFFFFF;sketch=0;shape=mxgraph.sitemap.photo;" vertex="1" parent="1">
          <mxGeometry x="110" y="630" width="120" height="70" as="geometry" />
        </mxCell>
        <mxCell id="dM5VIWMZbMEH0EdZ9pPq-19" value="" style="edgeStyle=orthogonalEdgeStyle;rounded=0;orthogonalLoop=1;jettySize=auto;html=1;" edge="1" parent="1" source="dM5VIWMZbMEH0EdZ9pPq-17" target="dM5VIWMZbMEH0EdZ9pPq-16">
          <mxGeometry relative="1" as="geometry" />
        </mxCell>
        <mxCell id="dM5VIWMZbMEH0EdZ9pPq-18" value="Text" style="text;html=1;align=center;verticalAlign=middle;whiteSpace=wrap;rounded=0;" vertex="1" parent="1">
          <mxGeometry x="335" y="670" width="60" height="30" as="geometry" />
        </mxCell>
        <mxCell id="dM5VIWMZbMEH0EdZ9pPq-20" value="Text" style="text;html=1;align=center;verticalAlign=middle;whiteSpace=wrap;rounded=0;" vertex="1" parent="1">
          <mxGeometry x="530" y="670" width="60" height="30" as="geometry" />
        </mxCell>
        <mxCell id="dM5VIWMZbMEH0EdZ9pPq-17" value="Text" style="text;html=1;align=center;verticalAlign=middle;whiteSpace=wrap;rounded=0;" vertex="1" parent="1">
          <mxGeometry x="160" y="670" width="60" height="30" as="geometry" />
        </mxCell>
        <mxCell id="dM5VIWMZbMEH0EdZ9pPq-23" value="Photo" style="html=1;whiteSpace=wrap;strokeColor=none;fillColor=#0079D6;labelPosition=center;verticalLabelPosition=middle;verticalAlign=top;align=center;fontSize=12;outlineConnect=0;spacingTop=-6;fontColor=#FFFFFF;sketch=0;shape=mxgraph.sitemap.photo;" vertex="1" parent="1">
          <mxGeometry x="100" y="790" width="120" height="70" as="geometry" />
        </mxCell>
        <mxCell id="dM5VIWMZbMEH0EdZ9pPq-24" value="Photo" style="html=1;whiteSpace=wrap;strokeColor=none;fillColor=#0079D6;labelPosition=center;verticalLabelPosition=middle;verticalAlign=top;align=center;fontSize=12;outlineConnect=0;spacingTop=-6;fontColor=#FFFFFF;sketch=0;shape=mxgraph.sitemap.photo;" vertex="1" parent="1">
          <mxGeometry x="300" y="790" width="120" height="70" as="geometry" />
        </mxCell>
        <mxCell id="dM5VIWMZbMEH0EdZ9pPq-25" value="Photo" style="html=1;whiteSpace=wrap;strokeColor=none;fillColor=#0079D6;labelPosition=center;verticalLabelPosition=middle;verticalAlign=top;align=center;fontSize=12;outlineConnect=0;spacingTop=-6;fontColor=#FFFFFF;sketch=0;shape=mxgraph.sitemap.photo;" vertex="1" parent="1">
          <mxGeometry x="500" y="790" width="120" height="70" as="geometry" />
        </mxCell>
        <mxCell id="dM5VIWMZbMEH0EdZ9pPq-26" value="" style="rounded=0;whiteSpace=wrap;html=1;" vertex="1" parent="1">
          <mxGeometry x="30" y="1030" width="780" height="60" as="geometry" />
        </mxCell>
        <mxCell id="dM5VIWMZbMEH0EdZ9pPq-27" value="footer" style="text;html=1;align=center;verticalAlign=middle;whiteSpace=wrap;rounded=0;" vertex="1" parent="1">
          <mxGeometry x="300" y="1045" width="60" height="30" as="geometry" />
        </mxCell>
      </root>
    </mxGraphModel>
  </diagram>
</mxfile>
